<?xml version="1.0" standalone="no"?>
<!DOCTYPE svg PUBLIC "-//W3C//DTD SVG 20010904//EN"
 "http://www.w3.org/TR/2001/REC-SVG-20010904/DTD/svg10.dtd">
<svg version="1.0" xmlns="http://www.w3.org/2000/svg"
 width="275.000000pt" height="183.000000pt" viewBox="0 0 275.000000 183.000000"
 preserveAspectRatio="xMidYMid meet">

<g transform="translate(0.000000,183.000000) scale(0.100000,-0.100000)"
fill="#000000" stroke="none">
<path d="M0 1745 l0 -84 26 24 c15 14 31 25 36 25 17 0 21 -33 6 -44 -8 -6
-27 -30 -41 -53 -27 -42 -27 -45 -27 -222 0 -134 3 -181 12 -184 10 -4 10 -6
1 -6 -10 -1 -13 -66 -13 -292 l0 -291 31 6 c33 6 109 -2 109 -13 0 -3 -31 -5
-70 -3 l-70 4 1 -81 c1 -65 4 -81 17 -84 15 -4 15 -5 0 -6 -16 -1 -18 -19 -18
-221 l1 -220 444 0 c434 0 445 1 485 21 44 23 61 21 36 -4 -14 -13 -5 -15 74
-16 90 0 90 0 96 27 4 15 12 30 18 34 6 4 12 12 12 18 1 5 2 15 3 20 2 18 36
11 49 -10 8 -14 9 -20 1 -20 -7 0 -8 -7 -4 -17 4 -10 8 -25 9 -33 2 -12 23
-16 102 -18 l99 -3 -23 21 c-18 17 -21 25 -11 36 8 10 8 14 0 14 -7 0 -9 13
-6 35 2 19 0 35 -4 35 -5 0 -11 9 -14 20 -3 11 -2 20 1 20 4 0 7 16 7 35 0 19
-4 35 -8 35 -5 0 -5 5 -2 10 3 6 1 10 -4 10 -6 0 -2 9 9 20 11 11 20 27 20 35
0 8 4 15 10 15 5 0 7 6 4 14 -3 8 -1 17 5 21 6 3 11 15 11 26 0 16 5 19 20 14
15 -5 18 -2 15 15 -3 15 3 24 23 32 15 6 36 15 48 20 11 5 24 8 30 7 5 -1 22
3 39 10 16 7 40 10 53 8 12 -2 25 0 28 4 8 14 54 11 52 -3 -2 -8 6 -12 19 -10
12 2 24 -2 28 -8 3 -5 21 -10 39 -10 24 0 41 -9 63 -32 17 -18 40 -40 52 -48
13 -9 19 -21 15 -32 -3 -10 -1 -18 4 -18 6 0 15 -12 21 -27 7 -16 18 -39 26
-53 8 -13 11 -29 7 -35 -9 -13 -9 -37 1 -52 4 -7 4 -21 -2 -31 -5 -10 -9 -24
-9 -32 3 -48 -3 -69 -23 -75 -19 -6 -20 -8 -3 -26 10 -11 30 -19 51 -19 29 0
33 3 34 28 0 23 2 25 12 10 10 -15 13 -16 39 0 28 16 39 37 59 112 11 41 13
43 19 20 4 -15 0 -43 -10 -72 -12 -32 -14 -50 -7 -57 7 -7 4 -12 -9 -17 -53
-17 -51 -20 14 -20 68 0 69 1 42 14 -32 15 -44 40 -34 66 4 11 13 15 25 11 11
-4 19 -2 19 4 0 16 59 13 76 -3 24 -25 16 -41 -9 -18 -13 12 -30 22 -38 22
-11 0 -12 -2 -1 -9 11 -7 11 -9 -2 -14 -9 -4 -23 -4 -31 -1 -22 9 -38 -5 -24
-22 6 -7 16 -11 22 -7 5 3 7 1 4 -4 -4 -6 2 -13 13 -16 13 -3 20 0 20 9 0 8 6
14 13 14 21 0 34 -14 31 -33 -5 -32 21 -17 39 23 9 22 21 40 27 40 5 0 9 5 8
12 -2 6 15 22 37 34 99 58 237 8 288 -103 6 -14 19 -23 33 -23 l23 0 1 909 c0
671 -3 912 -12 917 -7 4 -8 3 -4 -4 5 -8 -1 -12 -14 -12 -12 0 -18 5 -15 10 3
6 1 10 -4 10 -6 0 -11 -4 -11 -10 0 -5 -7 -10 -16 -10 -8 0 -12 5 -9 10 4 6
-7 10 -24 10 -17 0 -31 -4 -31 -9 0 -12 -128 -13 -135 -1 -4 6 -11 10 -16 10
-6 0 -7 -5 -4 -10 3 -6 1 -10 -4 -10 -6 0 -11 5 -11 10 0 6 -55 10 -145 10
-112 0 -145 -3 -145 -13 0 -7 5 -18 10 -23 7 -7 0 -9 -22 -7 l-33 4 28 -21
c15 -12 25 -26 22 -31 -3 -4 1 -21 9 -37 15 -28 13 -42 -6 -42 -4 0 -8 8 -9
18 0 9 -3 12 -5 5 -3 -7 -12 -9 -20 -6 -7 3 -12 9 -9 13 3 5 0 12 -6 16 -8 4
-9 3 -5 -4 4 -7 1 -12 -6 -12 -7 0 -30 -5 -51 -11 -34 -9 -36 -12 -26 -31 6
-11 7 -18 2 -15 -4 3 -17 -2 -28 -10 -14 -11 -16 -17 -7 -20 22 -9 12 -20 -14
-15 -15 3 -23 10 -20 17 2 7 -3 15 -13 18 -14 3 -17 -1 -15 -22 l4 -26 -9 25
c-13 37 -13 60 2 56 6 -1 9 -1 4 1 -4 3 -7 11 -7 19 0 8 -7 14 -16 14 -14 0
-14 2 -3 16 7 9 18 26 24 38 8 15 21 21 45 22 51 2 57 5 35 13 -24 9 -27 33
-5 43 10 4 5 7 -14 7 -22 1 -26 -2 -18 -12 7 -9 8 -17 1 -27 -8 -11 -12 -12
-16 -2 -2 6 -16 12 -29 12 -13 0 -24 4 -24 9 0 5 -7 12 -16 15 -14 6 -15 4 -4
-9 11 -14 10 -17 -8 -22 -12 -3 -22 -10 -22 -17 0 -6 -7 -2 -15 8 -10 13 -12
23 -5 31 8 10 -19 13 -119 13 l-130 0 -4 -36 -4 -37 -1 38 -2 37 -45 0 c-39 0
-45 -3 -45 -21 0 -11 7 -27 15 -35 16 -16 8 -42 -21 -71 -7 -7 -11 -22 -9 -33
2 -11 0 -18 -5 -15 -5 3 -11 1 -15 -4 -3 -6 -12 -8 -20 -5 -8 3 -30 -4 -50
-16 -26 -16 -33 -18 -29 -7 4 12 0 14 -16 10 -12 -3 -19 -11 -17 -18 3 -6 -3
-17 -13 -23 -14 -9 -21 -8 -30 3 -6 8 -9 18 -6 23 3 4 -4 15 -15 22 -26 20
-24 37 7 44 20 5 25 12 21 26 -5 21 7 36 38 42 18 4 17 6 -7 18 -30 14 -45 40
-23 40 7 0 16 4 20 9 3 6 -27 10 -76 9 -51 0 -77 -3 -68 -9 8 -5 22 -9 32 -9
9 0 17 -5 17 -11 0 -5 5 -7 12 -3 6 4 8 3 5 -3 -4 -6 -18 -10 -32 -10 -31 0
-38 -6 -40 -36 -1 -15 -8 -22 -24 -23 -12 -1 -27 -9 -34 -18 -10 -14 -18 -15
-40 -7 -15 6 -27 7 -28 3 0 -4 -4 4 -10 16 -11 29 -4 42 21 42 14 0 17 5 12
23 -8 30 -31 46 -69 47 -33 0 -43 -16 -24 -36 6 -5 4 -14 -5 -22 -12 -11 -14
-7 -14 23 l0 35 -67 0 c-55 -1 -64 -3 -48 -12 36 -20 63 -57 57 -80 -3 -14 -1
-19 6 -14 17 10 15 -6 -4 -32 -14 -21 -62 -33 -49 -12 9 14 -8 13 -23 -2 -9
-9 -12 -9 -12 0 0 8 -7 9 -26 2 -28 -11 -52 -2 -75 27 -13 16 -12 17 4 4 10
-8 17 -9 17 -3 0 6 -5 14 -10 17 -8 5 -7 11 1 21 9 12 9 13 -3 9 -12 -5 -14 0
-11 19 6 32 20 43 58 49 25 3 24 4 -11 6 -22 0 -46 -5 -53 -11 -8 -7 -11 -8
-8 -3 3 6 -24 11 -72 12 l-77 1 4 -32 c2 -21 -2 -39 -12 -49 -10 -10 -12 -18
-6 -22 5 -3 10 -3 10 2 0 4 22 9 50 10 40 2 55 -3 80 -23 16 -14 30 -34 30
-43 0 -22 44 -64 70 -66 10 -1 16 3 13 8 -6 10 29 2 63 -14 25 -13 54 -59 54
-87 0 -12 -9 -22 -21 -25 -15 -4 -20 -11 -16 -21 4 -10 1 -16 -7 -16 -8 0 -17
-6 -19 -12 -4 -10 -8 -10 -15 1 -7 9 -12 10 -16 2 -4 -6 -13 -11 -19 -11 -7 0
-6 4 3 10 13 8 11 11 -7 16 -13 4 -23 10 -23 14 0 4 -11 7 -24 6 -13 0 -24 -3
-24 -6 2 -33 -4 -39 -32 -36 -30 3 -55 16 -32 16 7 0 12 4 12 9 0 5 -8 7 -19
4 -10 -2 -25 3 -34 11 -8 9 -25 16 -37 16 -12 0 -19 4 -16 8 2 4 0 14 -5 22
-7 11 -9 7 -7 -15 2 -18 -2 -30 -9 -31 -7 -1 -18 -2 -24 -3 -6 0 -9 -7 -6 -15
8 -19 -24 -15 -44 6 -18 19 -31 14 -22 -8 6 -15 -10 -17 -41 -5 -14 5 -16 10
-8 15 8 5 4 15 -13 32 -14 14 -25 28 -25 33 0 16 13 21 27 10 10 -9 13 -8 13
5 0 9 -6 16 -14 16 -9 0 -13 8 -10 23 3 14 -2 9 -13 -13 -9 -19 -18 -37 -20
-39 -1 -1 -8 1 -15 5 -7 5 -19 9 -27 11 -19 2 -30 23 -23 41 3 10 1 13 -6 8
-7 -4 -12 -1 -12 8 0 20 39 21 46 2 8 -22 33 -28 32 -8 -1 9 2 27 6 40 9 26
-5 29 -28 6 -9 -8 -16 -12 -16 -7 0 12 16 35 24 34 23 -3 30 0 16 9 -11 7 -8
10 16 10 17 0 47 -11 66 -23 47 -33 108 -47 100 -24 -1 5 2 6 8 2 8 -5 8 -11
1 -19 -7 -9 -5 -17 9 -29 20 -17 24 -12 21 26 -1 9 3 17 9 17 7 0 10 7 6 15
-3 8 2 19 12 24 9 6 12 11 6 11 -15 0 -36 -25 -27 -33 3 -4 1 -7 -5 -7 -15 0
-27 22 -23 43 1 12 -5 20 -18 24 -12 3 -21 9 -21 14 0 5 -12 9 -26 9 -14 0
-34 5 -46 11 -17 9 -19 8 -16 -8 3 -14 12 -18 41 -17 41 1 50 -10 15 -19 -27
-7 -80 23 -73 41 2 7 -2 15 -10 18 -7 3 -17 18 -20 34 -6 27 -8 28 -63 25 -31
-2 -82 -12 -113 -22 -46 -15 -58 -16 -68 -6 -7 7 -9 18 -6 23 4 6 -14 10 -44
10 l-51 0 0 -85z m2643 50 c-8 -22 -22 -18 -16 5 3 11 9 17 14 15 4 -3 6 -12
2 -20z m87 -15 c-6 -11 -13 -20 -16 -20 -2 0 0 9 6 20 6 11 13 20 16 20 2 0 0
-9 -6 -20z m-2382 -35 c11 -27 11 -28 -2 -10 -9 11 -20 25 -25 31 -5 7 -7 15
-4 18 8 8 16 -2 31 -39z m1462 35 c0 -5 -7 -10 -16 -10 -8 0 -12 5 -9 10 3 6
10 10 16 10 5 0 9 -4 9 -10z m129 -3 c-2 -1 -13 -9 -24 -17 -19 -14 -19 -14
-6 3 7 9 18 17 24 17 6 0 8 -1 6 -3z m-1691 -47 c-11 -22 -26 -61 -33 -87 -7
-27 -14 -41 -14 -32 -1 24 25 107 43 134 24 37 26 30 4 -15z m2270 33 c-10 -2
-26 -2 -35 0 -10 3 -2 5 17 5 19 0 27 -2 18 -5z m-1535 -74 c5 -4 7 -13 4 -20
-5 -15 -38 50 -36 73 0 7 5 0 11 -17 6 -16 15 -33 21 -36z m563 -8 c-51 -100
-124 -157 -233 -181 -55 -13 -178 4 -166 23 3 6 1 7 -6 3 -14 -9 -67 23 -106
65 -28 29 -28 31 -5 18 14 -8 32 -22 41 -31 9 -10 21 -18 28 -18 6 0 11 -4 11
-10 0 -5 11 -10 25 -10 14 0 25 -4 25 -10 0 -18 20 -11 21 8 0 13 3 12 11 -5
6 -13 15 -23 20 -23 5 0 6 5 3 10 -8 13 44 2 63 -13 8 -6 12 -6 12 1 0 5 9 8
19 5 30 -8 125 40 169 86 22 22 50 65 63 95 13 30 25 51 27 46 2 -5 -8 -31
-22 -59z m815 2 c-11 -21 -34 -54 -51 -73 -28 -32 -27 -29 8 25 22 33 43 71
47 85 5 14 10 20 12 13 2 -6 -5 -29 -16 -50z m-1154 31 c25 -12 31 -19 21 -25
-29 -19 -89 5 -74 29 9 15 11 15 53 -4z m1368 -4 c3 -5 1 -10 -4 -10 -6 0 -11
5 -11 10 0 6 2 10 4 10 3 0 8 -4 11 -10z m-1447 -39 c3 -8 -1 -12 -9 -9 -7 2
-15 10 -17 17 -3 8 1 12 9 9 7 -2 15 -10 17 -17z m582 -58 c0 -4 -11 9 -25 29
-14 20 -25 40 -25 45 0 4 11 -9 25 -29 14 -20 25 -40 25 -45z m-69 40 c13 -16
12 -17 -3 -4 -10 7 -18 15 -18 17 0 8 8 3 21 -13z m171 5 c19 19 33 14 34 -13
1 -14 -2 -22 -7 -19 -5 3 -9 1 -9 -5 0 -5 4 -11 10 -13 5 -2 6 -9 1 -17 -7
-11 -18 -6 -50 24 -47 43 -53 60 -16 43 19 -9 28 -9 37 0z m-809 -13 c-3 -9
-8 -14 -10 -11 -3 3 -2 9 2 15 9 16 15 13 8 -4z m1167 -15 c0 -5 -5 -10 -11
-10 -5 0 -7 5 -4 10 3 6 8 10 11 10 2 0 4 -4 4 -10z m357 -8 c-10 -10 -17 -22
-17 -26 0 -4 -28 -35 -62 -69 -35 -34 -80 -82 -101 -107 -31 -36 -34 -38 -16
-10 13 19 34 48 47 64 13 17 28 41 33 54 5 13 18 26 28 29 11 3 33 22 51 44
17 21 36 39 42 39 6 0 4 -8 -5 -18z m-1359 -8 c18 -8 34 -19 37 -25 4 -5 19
-9 36 -9 32 0 37 -11 14 -30 -12 -10 -21 -10 -45 0 -16 7 -30 16 -30 21 0 4
-12 9 -26 11 -17 2 -30 11 -35 26 -10 27 4 29 49 6z m664 -84 c6 0 9 -3 6 -6
-7 -7 -54 18 -85 45 -41 35 -24 32 23 -4 25 -19 50 -35 56 -35z m-1611 -30
c24 -119 96 -217 195 -265 27 -14 43 -25 36 -25 -27 0 -96 43 -143 90 -66 66
-99 137 -104 225 -4 72 -3 69 16 -25z m1489 68 c0 -6 -6 -5 -15 2 -8 7 -15 14
-15 16 0 2 7 1 15 -2 8 -4 15 -11 15 -16z m-109 -23 c26 -5 40 -14 48 -32 13
-27 29 -27 45 3 12 21 26 34 39 34 16 0 -48 -82 -75 -96 -34 -18 -38 -45 -5
-41 17 1 21 -2 19 -18 -6 -33 -23 -42 -117 -58 -132 -23 -266 -22 -314 2 -20
11 -43 26 -50 35 -13 16 -6 40 9 31 4 -3 10 2 13 10 3 7 23 17 44 20 58 10
113 33 161 67 24 16 61 32 82 35 22 3 37 10 34 15 -4 6 1 8 12 5 11 -3 35 -9
55 -12z m304 -46 c15 -14 -7 -10 -35 7 l-25 15 25 -7 c14 -3 29 -10 35 -15z
m731 -1 c-2 -13 -6 -30 -9 -38 -4 -8 -11 -28 -17 -44 -6 -16 -13 -26 -17 -23
-3 4 -1 19 5 34 6 15 14 43 17 61 7 36 25 45 21 10z m-2446 -33 c0 -18 28 -81
53 -118 10 -15 17 -33 15 -39 -4 -10 -88 148 -88 165 0 4 5 7 10 7 6 0 10 -7
10 -15z m2372 -7 c-8 -8 -17 -8 -34 0 -22 10 -21 11 12 11 26 1 31 -2 22 -11z
m-763 -2 c-21 -20 -99 -75 -94 -66 7 12 85 70 93 70 3 0 3 -2 1 -4z m-1394
-56 c3 -5 1 -19 -5 -31 -9 -16 -8 -24 5 -39 16 -18 16 -18 -11 -11 -22 6 -29
14 -30 32 0 13 -3 30 -7 36 -7 11 6 21 30 22 6 1 15 -3 18 -9z m118 -7 c3 -10
4 -31 3 -48 -1 -32 -11 -36 -72 -23 -35 8 -50 33 -33 54 6 8 8 14 3 15 -21 1
34 18 63 18 22 1 33 -4 36 -16z m249 -60 c-4 -51 -51 -95 -96 -91 -17 2 -34 6
-37 10 -3 5 -17 9 -32 10 -14 1 -24 4 -22 7 3 2 -4 10 -15 18 -11 8 -20 23
-20 34 0 10 -4 19 -9 19 -5 0 -7 9 -4 20 5 18 6 19 22 2 9 -10 13 -13 9 -8 -8
11 1 36 13 36 5 0 10 -8 10 -17 1 -15 2 -15 6 -2 3 11 23 19 71 25 83 12 108
-3 104 -63z m1137 47 c8 0 12 -3 8 -6 -3 -4 1 -13 9 -21 8 -8 12 -19 9 -24 -4
-5 2 -9 12 -9 17 -1 17 -1 0 -11 -19 -11 -37 -4 -37 14 -1 26 -37 56 -61 51
-19 -5 -21 -4 -9 5 8 6 24 9 35 6 11 -2 26 -5 34 -5z m76 0 c-3 -5 -10 -10
-16 -10 -5 0 -9 5 -9 10 0 6 7 10 16 10 8 0 12 -4 9 -10z m-301 -35 c-9 -14
-18 -25 -21 -25 -5 0 5 18 20 38 17 22 18 13 1 -13z m916 11 c0 -20 -11 -46
-19 -46 -4 0 -6 14 -3 30 4 30 22 43 22 16z m-770 -20 c0 -15 7 -26 18 -29 13
-4 11 -5 -5 -6 -13 0 -23 5 -24 12 0 6 -2 20 -4 30 -2 9 1 17 6 17 5 0 9 -11
9 -24z m-780 -11 c-10 -12 -15 -13 -20 -4 -4 6 -13 8 -19 5 -6 -4 -11 -2 -11
3 0 6 14 11 31 11 27 0 30 -2 19 -15z m744 -1 c3 -8 2 -12 -4 -9 -6 3 -10 10
-10 16 0 14 7 11 14 -7z m596 -4 c-8 -5 -17 -7 -19 -4 -3 3 1 9 9 14 8 5 17 7
19 4 3 -3 -1 -9 -9 -14z m-335 0 c-3 -5 -14 -10 -23 -9 -14 0 -13 2 3 9 27 11
27 11 20 0z m-958 -6 c-3 -3 -12 -4 -19 -1 -8 3 -5 6 6 6 11 1 17 -2 13 -5z
m672 -8 c10 -12 8 -13 -8 -9 -12 3 -18 9 -15 14 7 12 10 11 23 -5z m-427 -22
c23 -8 64 -28 92 -46 28 -17 60 -32 71 -33 59 -7 60 -7 32 -14 l-29 -6 22 -25
c25 -28 64 -102 74 -140 4 -14 -7 2 -24 35 -97 184 -289 271 -485 220 -106
-28 -193 -97 -250 -200 -72 -130 -64 -288 21 -422 44 -69 186 -172 196 -142 4
13 70 -10 81 -28 9 -15 71 -17 132 -4 22 5 56 12 75 15 l35 6 -40 -16 c-60
-25 -224 -25 -292 0 -29 11 -53 24 -53 28 0 4 -7 8 -15 8 -14 0 -98 78 -133
124 -52 66 -88 246 -64 315 10 28 9 31 -11 32 l-22 2 23 4 c12 2 22 11 22 20
0 8 -6 13 -12 10 -7 -2 -22 -1 -33 4 -15 6 -10 7 16 5 33 -3 38 0 53 31 20 43
20 51 -1 56 -10 2 -8 3 4 2 13 -1 28 4 34 11 9 11 6 14 -17 15 -16 0 -23 3
-15 6 8 3 26 17 39 30 14 14 31 22 39 18 9 -3 26 5 41 20 21 21 22 24 6 19
-18 -6 -18 -6 1 9 11 9 22 11 26 6 3 -6 18 -3 35 7 23 12 24 15 7 11 -13 -3
-26 -1 -29 4 -3 5 11 9 33 9 21 -1 56 3 78 9 50 12 184 4 237 -15z m-849 0
c-18 -9 -40 -13 -50 -10 -25 10 -1 22 45 24 l37 1 -32 -15z m1477 12 c0 -3 -4
-8 -10 -11 -5 -3 -10 -1 -10 4 0 6 5 11 10 11 6 0 10 -2 10 -4z m30 -22 c0
-14 -4 -23 -10 -19 -5 3 -10 15 -10 26 0 10 5 19 10 19 6 0 10 -12 10 -26z
m574 -36 c-7 -72 -28 -122 -58 -143 -35 -25 -36 -17 0 19 19 19 35 45 36 58 0
12 2 28 3 33 18 110 30 130 19 33z m-816 27 c-3 -3 -9 2 -12 12 -6 14 -5 15 5
6 7 -7 10 -15 7 -18z m322 15 c0 -5 -4 -10 -10 -10 -5 0 -10 5 -10 10 0 6 5
10 10 10 6 0 10 -4 10 -10z m403 3 c-7 -2 -19 -2 -25 0 -7 3 -2 5 12 5 14 0
19 -2 13 -5z m-671 -21 c-7 -2 -10 -8 -6 -13 3 -5 -2 -9 -10 -9 -8 0 -18 5
-21 10 -3 6 1 10 9 10 9 0 16 5 16 11 0 5 5 7 12 3 9 -6 9 -9 0 -12z m143 -2
c-3 -5 -12 -7 -20 -3 -21 7 -19 13 6 13 11 0 18 -4 14 -10z m-87 -31 c-19 -13
-28 -11 -28 5 0 9 7 12 21 9 16 -4 17 -8 7 -14z m-652 -1 c4 -7 3 -8 -4 -4 -8
5 -12 -1 -12 -16 0 -18 -2 -20 -10 -8 -5 8 -10 21 -10 28 0 15 26 16 36 0z
m804 8 c0 -2 -7 -7 -16 -10 -8 -3 -12 -2 -9 4 6 10 25 14 25 6z m-190 -27 c11
-19 10 -20 -9 -9 -12 6 -21 15 -21 20 0 18 19 11 30 -11z m121 1 c5 0 9 -4 9
-9 0 -14 -43 -7 -48 8 -3 10 0 12 12 8 10 -4 22 -7 27 -7z m504 -11 c-7 -10
-75 -7 -75 3 0 4 18 7 40 6 21 -1 37 -5 35 -9z m42 5 c-3 -3 -12 -4 -19 -1 -8
3 -5 6 6 6 11 1 17 -2 13 -5z m-2310 -10 c-3 -3 -12 -4 -19 -1 -8 3 -5 6 6 6
11 1 17 -2 13 -5z m56 -1 c-7 -2 -21 -2 -30 0 -10 3 -4 5 12 5 17 0 24 -2 18
-5z m1872 -3 c3 -5 -1 -10 -9 -10 -9 0 -16 5 -16 10 0 6 4 10 9 10 6 0 13 -4
16 -10z m-1061 -35 c3 -9 0 -15 -8 -15 -8 0 -16 7 -20 15 -3 9 0 15 8 15 8 0
16 -7 20 -15z m333 9 c-3 -3 -12 -4 -19 -1 -8 3 -5 6 6 6 11 1 17 -2 13 -5z
m603 2 c0 -2 -11 -6 -25 -8 -14 -3 -25 -1 -25 3 0 5 11 9 25 9 14 0 25 -2 25
-4z m-230 -41 c0 -5 -5 -3 -10 5 -5 8 -10 20 -10 25 0 6 5 3 10 -5 5 -8 10
-19 10 -25z m110 26 c0 -14 -18 -23 -31 -15 -8 4 -7 9 2 15 18 11 29 11 29 0z
m175 -2 c-4 -6 -9 -8 -12 -5 -11 10 -35 -25 -29 -41 6 -16 5 -16 -12 0 -10 9
-22 14 -25 10 -4 -3 -7 -1 -7 5 0 7 9 12 19 12 10 0 21 7 25 15 3 8 15 15 26
15 13 0 18 -4 15 -11z m45 1 c0 -5 -8 -10 -17 -10 -15 0 -16 2 -3 10 19 12 20
12 20 0z m-453 -32 c-3 -7 -5 -2 -5 12 0 14 2 19 5 13 2 -7 2 -19 0 -25z
m-520 16 c-3 -3 -12 -4 -19 -1 -8 3 -5 6 6 6 11 1 17 -2 13 -5z m-49 -21 c36
-21 40 -55 5 -49 -12 3 -24 -1 -27 -7 -2 -7 -5 -4 -5 6 -1 9 5 17 11 17 7 0 2
7 -10 16 -22 15 -29 34 -13 34 5 0 23 -8 39 -17z m262 2 c0 -8 -7 -15 -15 -15
-9 0 -12 6 -9 15 4 8 10 15 15 15 5 0 9 -7 9 -15z m50 1 c0 -7 -9 -16 -20 -19
-17 -4 -18 -2 -9 14 11 22 29 25 29 5z m420 -2 c0 -14 2 -15 17 -3 11 9 14 10
9 2 -4 -7 -15 -17 -25 -23 -16 -8 -18 -5 -18 15 0 14 3 25 8 25 5 0 9 -7 9
-16z m337 -11 c-3 -3 -11 -2 -17 2 -9 6 -9 10 1 16 14 8 27 -7 16 -18z m-1147
8 c0 -4 -11 -6 -25 -3 -14 2 -25 6 -25 8 0 2 11 4 25 4 14 0 25 -4 25 -9z
m240 -26 c-9 -11 -16 -13 -23 -6 -7 7 -6 15 3 26 9 11 16 13 23 6 7 -7 6 -15
-3 -26z m837 20 c0 -8 -4 -15 -9 -15 -10 0 -11 14 -1 23 9 10 10 9 10 -8z
m220 0 c0 -8 -6 -16 -13 -19 -7 -3 -10 2 -7 15 6 22 20 26 20 4z m-623 -55 l7
-25 -15 25 c-9 14 -15 32 -15 40 0 13 1 13 8 0 5 -8 12 -26 15 -40z m-854 26
c0 -8 -9 -12 -22 -11 -34 4 -35 6 -8 15 14 4 26 8 28 9 1 1 2 -5 2 -13z m950
4 c0 -5 -5 -10 -11 -10 -5 0 -7 5 -4 10 3 6 8 10 11 10 2 0 4 -4 4 -10z
m-1037 -7 c-7 -2 -21 -2 -30 0 -10 3 -4 5 12 5 17 0 24 -2 18 -5z m1387 -7 c0
-3 -4 -8 -10 -11 -5 -3 -10 -1 -10 4 0 6 5 11 10 11 6 0 10 -2 10 -4z m-202
-24 c6 -18 -15 -14 -22 4 -4 10 -1 14 6 12 6 -2 14 -10 16 -16z m-818 -2 c0
-5 -4 -10 -10 -10 -5 0 -10 5 -10 10 0 6 5 10 10 10 6 0 10 -4 10 -10z m720 6
c0 -3 -4 -8 -10 -11 -5 -3 -10 -1 -10 4 0 6 5 11 10 11 6 0 10 -2 10 -4z m144
-21 c-7 -16 -24 -21 -24 -6 0 8 7 13 27 20 1 1 0 -6 -3 -14z m-938 -20 c1 -8
-2 -13 -7 -9 -5 3 -9 12 -9 21 0 19 13 9 16 -12z m-648 3 c-5 -15 -58 -24 -58
-10 0 15 12 22 38 22 14 0 22 -5 20 -12z m737 2 c3 -5 1 -10 -4 -10 -6 0 -11
5 -11 10 0 6 2 10 4 10 3 0 8 -4 11 -10z m219 -1 c9 8 13 6 13 -4 0 -8 -9 -15
-19 -15 -11 0 -18 7 -17 18 0 11 2 12 6 4 3 -9 9 -10 17 -3z m206 1 c0 -5 -4
-10 -10 -10 -5 0 -10 5 -10 10 0 6 5 10 10 10 6 0 10 -4 10 -10z m160 1 c0 -4
10 -19 23 -33 43 -48 51 -63 13 -28 -42 39 -63 70 -46 70 5 0 10 -4 10 -9z
m503 -15 c-10 -13 -20 -22 -22 -20 -4 4 29 44 36 44 2 0 -4 -11 -14 -24z
m-1330 -26 c-10 -11 -19 -20 -21 -20 -1 0 2 9 8 20 6 11 15 20 20 20 6 0 2 -9
-7 -20z m112 11 c3 -5 2 -12 -3 -15 -5 -3 -9 1 -9 9 0 17 3 19 12 6z m642 -13
c-3 -8 -6 -5 -6 6 -1 11 2 17 5 13 3 -3 4 -12 1 -19z m423 12 c0 -5 -2 -10 -4
-10 -3 0 -8 5 -11 10 -3 6 -1 10 4 10 6 0 11 -4 11 -10z m116 -12 c-5 -35 -46
-53 -61 -28 -4 7 2 9 17 7 12 -2 17 -2 11 0 -7 3 -13 9 -13 15 0 5 7 8 15 4 8
-3 15 -1 15 4 0 6 4 10 9 10 5 0 8 -6 7 -12z m-1210 -25 c-2 -9 -8 -19 -13
-20 -17 -6 -27 18 -12 28 21 13 28 11 25 -8z m149 7 c-3 -5 -11 -10 -16 -10
-6 0 -7 5 -4 10 3 6 11 10 16 10 6 0 7 -4 4 -10z m1200 -4 c15 -8 34 -12 41
-9 8 3 22 -1 31 -8 9 -8 14 -9 10 -2 -10 15 13 22 40 12 13 -5 36 -6 51 -3 19
4 32 1 41 -10 7 -8 19 -12 27 -9 8 3 14 0 14 -6 0 -18 -48 -17 -65 1 -7 8 -6
8 4 3 9 -5 12 -4 7 3 -10 17 -36 15 -36 -2 0 -23 19 -29 89 -29 l66 1 0 -32
c0 -25 -5 -32 -22 -34 -15 -2 -23 2 -23 12 0 8 -9 20 -20 26 -14 8 -20 8 -20
0 0 -6 -6 -8 -12 -4 -8 5 -7 0 2 -12 28 -36 54 -55 71 -51 22 6 43 -8 34 -22
-4 -8 -18 -10 -38 -5 -28 6 -30 5 -19 -9 9 -11 10 -17 2 -22 -13 -8 5 -35 23
-35 6 0 3 6 -8 13 -24 19 -3 32 24 15 16 -10 23 -9 38 3 10 9 26 14 36 12 18
-5 23 -28 8 -38 -6 -3 -4 -19 4 -39 15 -36 12 -48 -11 -39 -8 3 -14 0 -14 -6
0 -6 5 -11 10 -11 6 0 10 -9 10 -20 0 -31 -17 -24 -23 10 -6 28 -27 43 -27 19
0 -5 -6 -7 -12 -3 -10 5 -10 4 -1 -6 6 -7 9 -19 6 -26 -3 -9 2 -14 13 -14 9 0
14 -3 11 -7 -4 -3 -1 -13 6 -21 10 -13 9 -15 -5 -9 -20 7 -21 6 -12 -17 3 -9
12 -16 20 -16 8 0 14 -9 14 -19 0 -14 -5 -18 -20 -14 -11 3 -18 9 -15 13 3 4
-3 14 -13 21 -9 7 -14 10 -10 5 4 -5 0 -15 -8 -23 -13 -14 -17 -13 -34 2 -19
17 -19 19 -2 32 9 8 -3 4 -27 -9 -45 -23 -73 -58 -35 -44 10 4 15 4 12 0 -4
-3 2 -15 12 -26 14 -15 22 -18 37 -10 16 10 16 11 -9 21 -20 7 -25 15 -21 30
3 12 10 18 15 15 5 -3 7 -12 4 -20 -3 -9 0 -11 11 -7 11 4 14 2 9 -5 -4 -7 -1
-12 7 -12 8 0 20 -7 27 -15 8 -9 9 -15 2 -15 -6 0 -9 -9 -7 -20 2 -13 -2 -20
-11 -20 -13 0 -18 12 -15 35 1 6 -5 2 -12 -7 -8 -10 -19 -18 -26 -18 -6 0 -11
-5 -11 -11 0 -5 -5 -7 -10 -4 -6 4 -8 11 -5 16 4 5 1 9 -4 9 -14 0 -14 -37 -1
-45 17 -11 -9 -35 -36 -35 -13 0 -24 5 -24 10 0 6 9 10 19 10 11 0 22 4 25 8
6 10 -30 52 -44 52 -20 0 3 30 24 31 20 0 20 1 1 8 -11 5 -31 4 -44 -1 -13 -5
-26 -6 -29 -3 -3 3 0 5 6 5 7 0 12 5 12 10 0 14 -36 13 -60 -2 -16 -10 -23 -9
-41 7 -12 11 -19 15 -16 8 4 -6 4 -13 0 -16 -5 -2 -2 -2 5 -1 6 2 12 -1 12 -6
0 -6 9 -10 20 -10 11 0 20 -4 20 -8 0 -17 -13 -20 -36 -10 -19 9 -28 8 -43 -6
-12 -11 -21 -14 -26 -7 -3 6 -13 11 -22 11 -12 0 -13 -3 -4 -13 6 -8 8 -16 6
-19 -3 -3 3 -8 15 -11 11 -3 20 -2 20 2 0 5 64 7 78 2 9 -4 16 7 14 22 -2 9 2
17 8 17 7 0 9 -7 6 -16 -4 -12 -2 -15 9 -11 8 4 17 2 20 -3 4 -6 -3 -10 -14
-10 -12 0 -21 -7 -21 -15 0 -14 -18 -20 -49 -15 -8 1 -18 -4 -22 -12 -7 -10
-10 -8 -15 8 -4 16 -11 20 -30 16 -14 -2 -24 0 -24 7 0 6 -11 11 -24 11 -31 0
-56 28 -35 41 10 6 10 9 2 9 -7 0 -13 4 -13 10 0 6 10 5 25 -2 18 -8 29 -8 36
-1 12 12 51 5 43 -8 -3 -5 0 -9 5 -9 15 0 14 43 -1 58 -14 14 -42 16 -34 3 4
-5 -4 -7 -16 -3 -12 3 -17 7 -11 9 7 3 -1 16 -19 32 -26 23 -29 30 -19 47 9
15 11 16 9 2 -2 -9 2 -17 7 -16 6 0 9 4 8 9 -8 27 -7 34 7 31 11 -3 11 1 -3
16 -17 19 -17 19 8 15 32 -7 32 5 0 17 -14 5 -25 16 -24 22 3 29 -2 35 -26 30
-14 -2 -22 -8 -19 -13 3 -5 -2 -12 -10 -15 -9 -3 -16 -12 -16 -20 0 -16 37
-37 50 -29 16 10 11 -22 -6 -36 -10 -8 -13 -21 -9 -38 5 -21 4 -23 -9 -12 -9
8 -16 19 -16 26 0 7 -12 24 -28 37 -30 26 -33 42 -14 76 11 19 11 26 0 39 -11
15 -10 16 12 9 41 -11 70 -14 64 -5 -2 5 -20 11 -39 15 -36 6 -47 27 -19 38 8
3 12 2 9 -3 -3 -5 -1 -12 5 -16 5 -3 10 3 10 14 0 12 -5 21 -11 21 -12 0 -1
42 13 51 17 11 47 -2 54 -23 3 -12 11 -17 21 -14 8 3 19 6 24 6 5 0 9 5 9 10
0 6 -8 10 -18 10 -27 0 -34 11 -19 29 11 14 10 14 -5 2 -14 -11 -21 -11 -33
-1 -17 14 -10 34 10 26 7 -2 12 2 11 11 0 8 9 22 22 30 21 15 22 14 16 -2 -5
-12 -4 -16 4 -11 6 3 14 1 17 -5 4 -5 13 -8 21 -5 11 4 13 0 8 -18 -4 -19 -1
-26 15 -31 12 -3 28 -13 36 -21 12 -12 15 -13 15 -2 0 7 -9 21 -20 31 -15 13
-19 25 -14 52 3 21 1 35 -5 35 -6 0 -11 -8 -11 -17 -1 -14 -4 -12 -15 7 -24
43 -21 47 20 26z m-1275 -21 c0 -8 5 -15 10 -15 6 0 10 -6 10 -12 -1 -7 -8 -4
-18 8 -13 15 -23 19 -37 13 -31 -12 -38 -10 -25 6 7 8 23 15 36 15 15 0 24 -6
24 -15z m240 -2 c-1 -25 -29 -74 -30 -51 0 9 5 20 11 24 6 3 9 15 6 25 -3 11
-1 19 4 19 5 0 9 -8 9 -17z m43 10 c-7 -2 -19 -2 -25 0 -7 3 -2 5 12 5 14 0
19 -2 13 -5z m324 -40 c-3 -10 -5 -2 -5 17 0 19 2 27 5 18 2 -10 2 -26 0 -35z
m471 28 c33 -21 -126 -66 -198 -56 -52 7 -64 13 -68 35 -3 12 -1 12 9 3 6 -6
18 -9 27 -6 10 4 13 2 8 -5 -9 -16 7 -15 22 0 9 9 12 9 12 1 0 -12 32 -9 74 7
17 6 27 6 32 -2 4 -7 10 -5 16 6 7 12 14 14 28 6 13 -7 21 -7 26 2 4 6 3 8 -4
4 -6 -3 -13 -2 -17 4 -7 12 15 13 33 1z m-648 -5 c0 -2 -7 -7 -16 -10 -8 -3
-12 -2 -9 4 6 10 25 14 25 6z m362 -14 c17 -17 -4 -15 -28 2 -17 13 -17 14 -1
12 9 -1 23 -8 29 -14z m-901 -9 c13 -15 12 -16 -8 -11 -15 4 -23 2 -23 -6 0
-7 -9 -12 -20 -11 -27 2 -38 15 -13 15 12 0 23 7 27 15 7 20 20 19 37 -2z
m-675 -4 c7 -12 -15 -31 -31 -26 -5 2 -11 11 -13 20 -4 19 32 24 44 6z m1062
-3 c-7 -8 -15 -12 -17 -11 -5 6 10 25 20 25 5 0 4 -6 -3 -14z m92 6 c0 -4 -6
-14 -12 -21 -10 -11 -10 -14 0 -18 6 -3 12 -9 12 -15 0 -5 -13 0 -30 12 -16
12 -30 28 -30 36 0 9 11 14 30 14 17 0 30 -4 30 -8z m-465 -32 c3 -5 1 -10 -4
-10 -6 0 -11 5 -11 10 0 6 2 10 4 10 3 0 8 -4 11 -10z m145 -11 c0 -14 -17
-10 -23 5 -4 10 -1 13 9 9 7 -3 14 -9 14 -14z m490 -25 c0 -2 -7 -4 -15 -4 -8
0 -15 4 -15 10 0 5 7 7 15 4 8 -4 15 -8 15 -10z m1098 7 c10 -6 9 -10 -7 -14
-21 -5 -36 5 -24 17 8 8 15 7 31 -3z m-1793 -11 c3 -5 1 -10 -4 -10 -6 0 -11
5 -11 10 0 6 2 10 4 10 3 0 8 -4 11 -10z m-309 -11 c48 -12 99 -61 90 -86 -3
-8 -2 -12 3 -9 13 8 23 -42 16 -75 -4 -16 -11 -29 -16 -29 -6 0 -8 -4 -5 -9 4
-5 -3 -7 -14 -4 -12 3 -20 0 -20 -7 0 -8 -8 -10 -21 -7 -16 4 -18 3 -8 -9 9
-11 8 -14 -5 -14 -9 0 -16 5 -16 11 0 5 -4 8 -9 4 -5 -3 -12 -1 -16 5 -8 13
-45 13 -45 0 0 -5 -5 -10 -11 -10 -5 0 -7 5 -4 10 9 15 -6 12 -25 -5 -14 -13
-17 -13 -17 0 0 8 4 12 8 10 3 -3 13 3 20 12 13 15 11 16 -21 10 -19 -3 -29
-3 -22 0 17 7 15 20 -4 27 -8 3 -12 2 -9 -4 3 -6 -1 -10 -9 -10 -19 0 -21 16
-5 26 8 4 3 12 -12 21 -23 13 -23 14 -2 10 15 -3 20 -1 17 8 -3 7 5 20 18 29
l23 17 -27 -5 c-36 -6 -35 4 5 47 45 47 71 54 143 36z m700 -4 c10 -8 14 -15
8 -15 -5 0 -19 7 -30 15 -10 8 -14 15 -8 15 5 0 19 -7 30 -15z m-120 -10 c-3
-9 0 -15 8 -15 7 0 20 -8 27 -17 12 -15 12 -16 -6 -9 -11 4 -26 9 -33 10 -7 1
-12 6 -11 12 3 16 11 34 16 34 3 0 3 -7 -1 -15z m744 -6 c59 -34 96 -119 51
-119 -10 0 -24 -7 -31 -15 -6 -8 -15 -14 -18 -13 -4 1 -15 -2 -24 -6 -25 -11
-85 12 -108 41 -37 47 -37 73 -1 105 38 34 79 36 131 7z m782 -11 c-10 -17
-25 -34 -32 -36 -11 -4 -11 0 3 15 9 11 17 24 17 30 0 9 7 15 27 22 2 1 -5
-13 -15 -31z m45 10 c-3 -8 -6 -5 -6 6 -1 11 2 17 5 13 3 -3 4 -12 1 -19z
m-1418 -24 c6 -6 -8 -34 -17 -34 -5 0 -14 12 -21 26 -10 24 -10 25 11 18 13
-3 25 -8 27 -10z m-309 -8 c0 -9 -8 -12 -27 -8 l-28 6 25 7 c14 4 26 7 28 8 1
1 2 -5 2 -13z m428 -17 c-3 -8 -7 -3 -11 10 -4 17 -3 21 5 13 5 -5 8 -16 6
-23z m-518 0 c0 -4 -7 -6 -15 -3 -8 4 -15 10 -15 15 0 4 7 6 15 3 8 -4 15 -10
15 -15z m304 -24 c-6 -16 -24 -21 -24 -7 0 11 11 22 21 22 5 0 6 -7 3 -15z
m-291 -25 c3 -11 1 -18 -4 -14 -5 3 -9 12 -9 20 0 20 7 17 13 -6z m92 0 c8
-13 -5 -13 -25 0 -13 8 -13 10 2 10 9 0 20 -4 23 -10z m-78 -36 c-3 -3 -12 -4
-19 -1 -8 3 -5 6 6 6 11 1 17 -2 13 -5z m108 -4 c3 -6 -1 -7 -9 -4 -18 7 -21
14 -7 14 6 0 13 -4 16 -10z m-44 -40 c21 0 60 -30 54 -41 -7 -10 -5 -11 78
-34 32 -9 56 -19 53 -22 -6 -7 -118 26 -134 40 -10 8 -16 7 -22 -2 -5 -9 -10
-10 -14 -2 -4 6 -2 11 4 11 6 0 8 5 5 10 -3 6 -13 10 -21 10 -18 0 -37 18 -47
44 -7 19 -7 19 11 3 10 -9 25 -17 33 -17z m214 12 c-3 -3 -11 0 -18 7 -9 10
-8 11 6 5 10 -3 15 -9 12 -12z m-424 -18 c15 -3 33 -18 44 -37 10 -18 22 -35
27 -38 9 -6 17 -34 25 -86 5 -29 2 -33 -32 -47 -32 -14 -36 -18 -25 -31 10
-12 10 -19 1 -28 -9 -9 -14 -9 -19 0 -6 9 -59 11 -82 2 -3 -1 -9 -1 -14 0 -5
1 -6 -5 -3 -13 5 -13 2 -13 -21 -4 -15 7 -34 18 -43 25 -9 7 -20 10 -25 6 -5
-5 0 3 11 16 18 21 18 24 3 18 -21 -7 -22 -3 -8 24 6 10 7 19 2 19 -4 0 -6 16
-4 35 2 20 8 32 14 29 6 -4 8 1 4 14 -5 15 4 29 38 59 46 40 60 45 107 37z
m659 -14 c0 -5 -5 -10 -11 -10 -5 0 -7 5 -4 10 3 6 8 10 11 10 2 0 4 -4 4 -10z
m70 -11 c-7 -11 -14 -18 -17 -15 -3 3 0 12 7 21 18 21 23 19 10 -6z m127 15
c-3 -3 -12 -4 -19 -1 -8 3 -5 6 6 6 11 1 17 -2 13 -5z m-1282 -26 c14 -6 25
-14 25 -17 0 -8 37 -56 73 -95 15 -16 25 -36 23 -43 -3 -7 0 -13 6 -13 9 0 9
-3 1 -11 -6 -6 -29 -12 -52 -14 -38 -2 -72 -15 -42 -15 7 0 10 -4 7 -9 -4 -5
-3 -11 1 -14 5 -2 1 -2 -7 1 -8 3 -23 4 -33 4 -11 -1 -15 4 -11 11 5 9 4 9 -6
0 -11 -10 -11 -15 0 -28 8 -10 9 -15 1 -15 -6 0 -11 5 -11 10 0 6 -7 10 -15
10 -8 0 -33 6 -55 12 -32 10 -39 16 -34 32 4 13 2 16 -6 11 -9 -6 -9 -3 -1 12
7 14 7 24 -2 33 -9 10 -9 11 1 6 6 -4 12 -3 12 3 0 5 -5 11 -10 13 -15 5 36
79 73 106 37 26 30 25 62 10z m769 -6 c3 -5 -1 -9 -9 -9 -8 0 -12 4 -9 9 3 4
7 8 9 8 2 0 6 -4 9 -8z m230 -11 c3 -5 -1 -11 -9 -14 -9 -4 -12 -1 -8 9 6 16
10 17 17 5z m776 -5 c0 -16 -18 -31 -27 -22 -8 8 5 36 17 36 5 0 10 -6 10 -14z
m-665 -6 c-3 -5 -12 -10 -18 -10 -7 0 -6 4 3 10 19 12 23 12 15 0z m-190 -20
c-16 -4 -41 -8 -55 -8 l-25 0 25 8 c14 4 39 8 55 8 l30 0 -30 -8z m-1155 -15
c0 -11 -11 -15 -37 -15 -38 0 -38 0 -13 14 34 19 50 19 50 1z m2051 -29 c5 3
9 1 9 -5 0 -15 -16 -22 -35 -15 -9 4 -14 12 -11 19 3 8 -2 16 -10 19 -9 3 -12
11 -8 17 5 8 14 3 26 -15 11 -14 24 -24 29 -20z m555 -41 c-31 -52 -113 -118
-175 -140 -54 -19 -77 -19 -33 0 17 8 32 19 32 25 0 5 3 9 8 8 14 -4 72 21 72
31 0 6 5 11 12 11 14 0 86 79 94 103 3 10 8 16 11 13 3 -3 -7 -26 -21 -51z
m-2633 38 c-7 -2 -21 -2 -30 0 -10 3 -4 5 12 5 17 0 24 -2 18 -5z m2567 -13
c8 -5 13 -10 10 -11 -3 0 -13 -2 -22 -4 -10 -2 -18 3 -18 11 0 16 9 18 30 4z
m-430 -10 c13 -8 13 -10 -2 -10 -9 0 -20 5 -23 10 -8 13 5 13 25 0z m-56 -25
c3 -8 3 -15 0 -15 -3 0 -12 7 -20 15 -13 13 -13 15 -1 15 8 0 17 -7 21 -15z
m549 -53 c-39 -49 -113 -98 -176 -117 -28 -8 -53 -13 -55 -10 -3 2 4 7 14 10
67 21 163 77 199 117 48 53 61 53 18 0z m-2156 -6 c12 -4 25 -16 28 -27 4 -11
17 -31 31 -44 28 -28 31 -59 7 -75 -17 -11 -17 -11 0 -6 20 6 21 5 5 -29 -11
-25 -28 -34 -28 -15 0 6 -5 10 -11 10 -6 0 -8 -10 -5 -22 3 -13 3 -17 0 -11
-7 15 -40 1 -62 -26 -12 -14 -13 -14 -8 2 5 17 5 17 -18 0 -13 -10 -21 -22
-18 -27 3 -5 -9 -6 -27 -3 -20 4 -30 3 -26 -3 3 -6 1 -10 -4 -10 -6 0 -11 5
-11 11 0 6 -7 9 -15 5 -17 -6 -17 -5 -20 82 -1 35 3 62 8 62 6 0 7 3 4 7 -4 3
1 12 11 19 10 8 12 13 5 14 -19 0 20 59 52 79 29 17 66 20 102 7z m1908 4 c3
-6 -1 -7 -9 -4 -18 7 -21 14 -7 14 6 0 13 -4 16 -10z m110 0 c-3 -5 -12 -10
-18 -10 -7 0 -6 4 3 10 19 12 23 12 15 0z m-2218 -52 c-3 -8 -6 -5 -6 6 -1 11
2 17 5 13 3 -3 4 -12 1 -19z m423 2 c0 -5 -2 -10 -4 -10 -3 0 -8 5 -11 10 -3
6 -1 10 4 10 6 0 11 -4 11 -10z m1557 -36 c-3 -3 -12 -4 -19 -1 -8 3 -5 6 6 6
11 1 17 -2 13 -5z m-1998 -85 c12 -12 20 -24 16 -27 -3 -3 -18 6 -33 21 -31
32 -16 37 17 6z m654 14 c-7 -2 -21 -2 -30 0 -10 3 -4 5 12 5 17 0 24 -2 18
-5z m-928 -21 c-3 -3 -11 0 -18 7 -9 10 -8 11 6 5 10 -3 15 -9 12 -12z m45 -7
c0 -9 -9 -15 -22 -14 -18 1 -19 2 -5 6 9 2 15 9 12 14 -4 5 -1 9 4 9 6 0 11
-7 11 -15z m847 -1 c-3 -3 -12 -4 -19 -1 -8 3 -5 6 6 6 11 1 17 -2 13 -5z
m-912 -14 c-3 -5 -11 -10 -16 -10 -6 0 -7 5 -4 10 3 6 11 10 16 10 6 0 7 -4 4
-10z m2092 -45 c0 -8 -6 -15 -14 -15 -17 0 -17 17 0 23 6 3 12 6 13 6 0 1 1
-6 1 -14z m-2037 1 c0 -9 -30 -14 -35 -6 -4 6 3 10 14 10 12 0 21 -2 21 -4z
m83 -23 c-7 -2 -19 -2 -25 0 -7 3 -2 5 12 5 14 0 19 -2 13 -5z m687 -11 c0
-13 -12 -22 -22 -16 -10 6 -1 24 13 24 5 0 9 -4 9 -8z m-660 -6 c0 -2 -9 -6
-20 -9 -11 -3 -18 -1 -14 4 5 9 34 13 34 5z m780 -26 c0 -5 -8 -10 -17 -10
-15 0 -16 2 -3 10 19 12 20 12 20 0z m1290 6 c0 -2 -9 -6 -20 -9 -11 -3 -20
-1 -20 4 0 5 9 9 20 9 11 0 20 -2 20 -4z m-2030 -26 c0 -5 -2 -10 -4 -10 -3 0
-8 5 -11 10 -3 6 -1 10 4 10 6 0 11 -4 11 -10z"/>
<path d="M1610 1490 c0 -5 5 -10 10 -10 6 0 10 5 10 10 0 6 -4 10 -10 10 -5 0
-10 -4 -10 -10z"/>
<path d="M425 1360 c-3 -5 -1 -10 4 -10 6 0 11 5 11 10 0 6 -2 10 -4 10 -3 0
-8 -4 -11 -10z"/>
<path d="M874 1175 c-17 -13 -17 -14 -2 -15 9 0 20 5 23 11 11 17 0 20 -21 4z"/>
<path d="M2250 809 c0 -5 5 -7 10 -4 6 3 10 8 10 11 0 2 -4 4 -10 4 -5 0 -10
-5 -10 -11z"/>
<path d="M2147 796 c-3 -8 1 -20 9 -26 10 -9 14 -9 14 -1 0 6 -4 11 -10 11 -5
0 -7 7 -4 15 4 8 4 15 1 15 -3 0 -7 -6 -10 -14z"/>
<path d="M2346 785 c-27 -25 -86 -35 -86 -15 0 6 -7 10 -15 10 -8 0 -15 -5
-15 -11 0 -5 -4 -7 -10 -4 -5 3 -10 2 -10 -3 0 -6 7 -12 15 -16 8 -3 15 -1 15
5 0 6 7 6 20 -1 11 -6 20 -17 20 -24 0 -8 6 -19 14 -25 10 -9 15 -8 20 4 3 8
10 15 16 15 6 0 8 -4 5 -10 -11 -18 32 -11 46 8 13 15 12 16 -3 3 -15 -11 -19
-11 -23 1 -3 7 -15 14 -25 15 -11 1 -18 -2 -15 -7 3 -4 -2 -10 -10 -14 -10 -4
-15 1 -15 14 0 20 12 24 55 22 12 0 15 1 6 5 -11 4 -8 10 10 24 13 10 21 20
18 23 -3 4 -18 -5 -33 -19z"/>
<path d="M2392 788 c-7 -9 -6 -22 4 -43 8 -16 12 -22 9 -11 -4 13 -1 17 10 12
19 -7 19 1 0 21 -8 8 -13 19 -10 24 9 13 -1 11 -13 -3z"/>
<path d="M2444 758 c-3 -4 1 -8 8 -9 7 0 32 -2 56 -4 33 -3 39 -1 30 8 -15 14
-86 18 -94 5z"/>
<path d="M2407 716 c-26 -19 -21 -27 14 -21 18 3 28 2 25 -4 -4 -5 -1 -13 6
-18 18 -11 58 -11 58 0 0 5 -9 7 -19 4 -10 -2 -25 -1 -32 4 -12 7 -11 9 1 9
13 0 13 1 0 10 -10 6 -11 10 -2 10 6 0 12 5 12 11 0 8 -5 7 -16 -2 -11 -9 -18
-9 -22 -2 -5 8 -12 8 -25 -1z"/>
<path d="M2526 685 c-3 -9 0 -15 9 -15 8 0 15 7 15 15 0 8 -4 15 -9 15 -5 0
-11 -7 -15 -15z"/>
<path d="M2637 661 c6 -22 33 -37 33 -18 0 14 -20 37 -31 37 -4 0 -5 -9 -2
-19z"/>
<path d="M2500 612 c0 -5 7 -9 15 -9 8 0 12 4 9 9 -3 4 -9 8 -15 8 -5 0 -9 -4
-9 -8z"/>
<path d="M2098 603 c7 -3 16 -2 19 1 4 3 -2 6 -13 5 -11 0 -14 -3 -6 -6z"/>
<path d="M2280 600 c0 -5 -7 -10 -15 -10 -9 0 -12 -6 -8 -17 5 -13 2 -15 -15
-11 -24 7 -25 6 -16 -16 3 -8 12 -12 21 -9 10 4 14 0 11 -13 -2 -11 3 -19 12
-20 8 0 23 -4 33 -9 20 -9 87 2 87 15 0 16 -25 17 -38 1 -12 -14 -13 -14 -8 2
6 19 -10 24 -17 5 -4 -10 -6 -9 -6 1 -1 10 -4 11 -15 2 -12 -10 -17 -8 -25 8
-13 23 -14 42 -2 23 7 -11 13 -9 30 9 26 29 27 43 1 36 -11 -3 -18 -1 -14 4 3
5 0 9 -5 9 -6 0 -11 -4 -11 -10z"/>
<path d="M2468 586 c7 -28 22 -36 51 -29 17 4 22 2 17 -6 -4 -6 -3 -11 3 -11
27 0 14 18 -28 41 -46 24 -48 25 -43 5z"/>
<path d="M2130 592 c0 -5 7 -13 16 -16 10 -4 14 -1 12 6 -5 15 -28 23 -28 10z"/>
<path d="M2568 593 c7 -3 16 -2 19 1 4 3 -2 6 -13 5 -11 0 -14 -3 -6 -6z"/>
<path d="M2382 557 c-8 -10 -6 -13 9 -13 10 0 19 6 19 13 0 7 -4 13 -9 13 -5
0 -13 -6 -19 -13z"/>
<path d="M2607 546 c-4 -10 -1 -13 8 -9 8 3 12 9 9 14 -7 12 -11 11 -17 -5z"/>
<path d="M2195 390 c3 -5 16 -10 28 -10 18 0 19 2 7 10 -20 13 -43 13 -35 0z"/>
<path d="M640 400 c0 -5 5 -10 11 -10 5 0 7 5 4 10 -3 6 -8 10 -11 10 -2 0 -4
-4 -4 -10z"/>
<path d="M640 355 c0 -8 4 -15 10 -15 5 0 7 7 4 15 -4 8 -8 15 -10 15 -2 0 -4
-7 -4 -15z"/>
<path d="M1077 1809 c-16 -18 -15 -19 9 -17 20 2 56 26 43 29 -2 0 -11 2 -20
4 -9 1 -24 -6 -32 -16z"/>
<path d="M1323 1816 c0 -8 7 -18 14 -21 10 -3 13 1 11 12 -4 21 -25 28 -25 9z"/>
<path d="M2016 1815 c-3 -8 0 -16 7 -16 7 -1 22 -3 34 -4 19 -2 20 0 10 16
-14 23 -43 25 -51 4z"/>
<path d="M130 1810 c-9 -6 -10 -10 -3 -10 6 0 15 5 18 10 8 12 4 12 -15 0z"/>
<path d="M1386 1765 c-3 -8 -1 -15 3 -15 5 0 11 7 15 15 3 8 1 15 -3 15 -5 0
-11 -7 -15 -15z"/>
<path d="M1310 1718 c0 -22 34 -23 69 -4 24 13 23 14 -22 17 -40 4 -47 1 -47
-13z"/>
<path d="M1419 1731 c8 -5 11 -16 8 -25 -3 -8 -2 -18 4 -21 5 -4 12 1 15 9 7
18 -12 46 -30 46 -6 0 -5 -4 3 -9z"/>
<path d="M765 1713 c-11 -3 -24 -9 -30 -15 -12 -12 71 -1 95 13 16 9 -28 11
-65 2z"/>
<path d="M2025 1690 c-3 -6 1 -7 9 -4 18 7 21 14 7 14 -6 0 -13 -4 -16 -10z"/>
<path d="M1990 1639 c0 -5 5 -7 10 -4 6 3 10 8 10 11 0 2 -4 4 -10 4 -5 0 -10
-5 -10 -11z"/>
<path d="M751 1554 c0 -11 3 -14 6 -6 3 7 2 16 -1 19 -3 4 -6 -2 -5 -13z"/>
<path d="M650 1500 c0 -14 15 -19 29 -11 9 6 7 10 -8 14 -12 3 -21 1 -21 -3z"/>
<path d="M835 1500 c-3 -5 -2 -10 4 -10 5 0 13 5 16 10 3 6 2 10 -4 10 -5 0
-13 -4 -16 -10z"/>
<path d="M780 1470 c20 -13 53 -13 45 0 -3 6 -18 10 -33 10 -21 0 -24 -2 -12
-10z"/>
<path d="M1692 223 c-18 -47 -19 -89 -2 -84 8 3 31 6 50 7 46 2 82 13 75 24
-3 5 3 13 12 19 10 6 14 11 10 11 -4 0 -3 9 3 20 9 16 8 18 -5 14 -8 -4 -15
-10 -15 -14 0 -5 -8 -6 -19 -3 -10 3 -22 -1 -27 -8 -5 -9 -2 -10 12 -5 10 4
15 4 11 -1 -5 -4 -24 -8 -43 -10 -30 -2 -34 1 -29 16 3 10 -1 23 -8 30 -12 9
-17 6 -25 -16z"/>
<path d="M1785 240 c-3 -5 -1 -10 4 -10 6 0 11 5 11 10 0 6 -2 10 -4 10 -3 0
-8 -4 -11 -10z"/>
<path d="M1731 90 c-8 -4 -20 -6 -28 -3 -17 7 -17 -2 2 -31 9 -13 14 -30 13
-37 -4 -18 48 -25 67 -9 13 10 13 16 0 39 -19 37 -38 52 -54 41z m24 -40 c3
-5 2 -10 -4 -10 -5 0 -13 5 -16 10 -3 6 -2 10 4 10 5 0 13 -4 16 -10z"/>
<path d="M1150 16 c0 -9 30 -14 35 -6 4 6 -3 10 -14 10 -12 0 -21 -2 -21 -4z"/>
</g>
</svg>
