<?xml version="1.0" standalone="no"?>
<!DOCTYPE svg PUBLIC "-//W3C//DTD SVG 20010904//EN"
 "http://www.w3.org/TR/2001/REC-SVG-20010904/DTD/svg10.dtd">
<svg version="1.0" xmlns="http://www.w3.org/2000/svg"
 width="204.000000pt" height="192.000000pt" viewBox="0 0 204.000000 192.000000"
 preserveAspectRatio="xMidYMid meet">

<g transform="translate(0.000000,192.000000) scale(0.100000,-0.100000)"
fill="#000000" stroke="none">
<path d="M1350 1513 c0 -49 -152 -234 -192 -233 -7 1 -38 9 -68 20 -67 24
-126 25 -199 4 -119 -33 -193 -121 -207 -246 -11 -98 38 -208 109 -244 18 -9
34 -18 35 -19 2 -2 -25 -32 -61 -67 -41 -40 -66 -74 -70 -93 -6 -32 15 -95 32
-95 22 0 10 -30 -19 -47 -44 -26 -74 -93 -67 -151 11 -98 118 -147 322 -146
224 1 348 62 374 183 21 99 -8 184 -74 222 -43 26 -142 39 -287 39 -69 0 -133
3 -142 6 -26 10 -18 52 17 90 l33 36 99 1 c92 2 105 5 155 33 136 76 181 272
89 386 -32 41 -31 58 4 58 32 1 117 50 140 82 27 36 34 116 13 156 -20 38 -36
49 -36 25z m-281 -280 c51 -39 66 -79 66 -183 0 -75 -4 -103 -20 -135 -56
-111 -205 -114 -264 -6 -20 36 -24 58 -24 125 0 44 5 97 11 117 14 39 53 82
92 98 36 15 108 7 139 -16z m45 -733 c87 -11 120 -33 124 -85 5 -54 -13 -89
-61 -116 -37 -21 -58 -24 -162 -27 -139 -4 -196 7 -237 48 -41 42 -35 115 14
178 12 14 215 16 322 2z"/>
</g>
</svg>
